<svg xmlns="http://www.w3.org/2000/svg"
    xmlns:xlink="http://www.w3.org/1999/xlink" width="32px" height="31px">
    <path fill-rule="evenodd" fill="rgb(149, 225, 211)" d="M30.739,9.502 C29.156,5.806 26.193,2.843 22.497,1.260 C23.496,0.473 24.754,0.0 26.125,0.0 C29.369,0.0 31.999,2.629 31.999,5.874 C31.999,7.245 31.526,8.502 30.739,9.502 ZM30.499,15.999 C30.499,19.851 28.987,23.343 26.537,25.940 L28.565,27.967 C28.833,28.236 29.0,28.607 29.0,29.16 C29.0,29.835 28.335,30.499 27.516,30.499 C27.107,30.499 26.736,30.334 26.468,30.65 L24.289,27.886 C21.939,29.529 19.84,30.499 15.999,30.499 C12.921,30.499 10.71,29.533 7.723,27.896 L5.560,30.60 C5.289,30.331 4.914,30.499 4.499,30.499 C3.671,30.499 2.999,29.828 2.999,28.999 C2.999,28.585 3.167,28.210 3.439,27.939 L5.451,25.927 C3.7,23.331 1.499,19.845 1.499,15.999 C1.499,7.991 7.991,1.499 15.999,1.499 C24.8,1.499 30.499,7.991 30.499,15.999 ZM15.999,4.499 C9.648,4.499 4.499,9.648 4.499,15.999 C4.499,22.351 9.648,27.499 15.999,27.499 C22.351,27.499 27.499,22.351 27.499,15.999 C27.499,9.648 22.351,4.499 15.999,4.499 ZM22.0,17.499 L15.999,17.499 C15.171,17.499 14.500,16.828 14.500,15.999 L14.500,7.999 C14.500,7.171 15.171,6.499 15.999,6.499 C16.828,6.499 17.499,7.171 17.499,7.999 L17.499,14.499 L22.0,14.499 C22.828,14.499 23.499,15.171 23.499,15.999 C23.499,16.828 22.828,17.499 22.0,17.499 ZM1.287,9.705 C0.483,8.685 0.0,7.399 0.0,5.999 C0.0,2.685 2.686,0.0 5.999,0.0 C7.400,0.0 8.685,0.483 9.705,1.286 C5.930,2.904 2.904,5.930 1.287,9.705 Z"/>
</svg>