<svg xmlns="http://www.w3.org/2000/svg"
    xmlns:xlink="http://www.w3.org/1999/xlink" width="12px" height="22px">
    <path fill-rule="evenodd" fill="rgb(204, 204, 204)" d="M0.522,18.859 L8.381,11.1 L0.419,3.39 L0.420,3.39 C0.160,2.769 0.0,2.402 0.0,1.997 C0.0,1.169 0.670,0.497 1.499,0.497 C1.904,0.497 2.270,0.657 2.541,0.919 L2.541,0.917 L11.541,9.917 L11.540,9.918 C11.822,10.191 11.999,10.573 11.999,10.998 C11.999,10.999 11.999,11.0 11.999,11.1 C11.999,11.2 11.999,11.4 11.999,11.5 C11.999,11.427 11.822,11.811 11.540,12.83 L11.541,12.83 L2.541,21.83 L2.537,21.80 C2.267,21.338 1.902,21.497 1.499,21.497 C0.670,21.497 0.0,20.826 0.0,19.998 C0.0,19.543 0.202,19.135 0.522,18.859 Z"/>
</svg>