<svg xmlns="http://www.w3.org/2000/svg"
    xmlns:xlink="http://www.w3.org/1999/xlink" width="12px" height="22px">
    <path fill-rule="evenodd" fill="rgb(204, 204, 204)" d="M11.477,18.859 L3.618,11.1 L11.580,3.39 L11.579,3.39 C11.839,2.769 12.0,2.402 12.0,1.997 C12.0,1.169 11.329,0.497 10.500,0.497 C10.95,0.497 9.729,0.657 9.458,0.919 L9.458,0.917 L0.458,9.917 L0.459,9.918 C0.177,10.191 0.0,10.573 0.0,10.998 C0.0,10.999 0.0,11.0 0.0,11.1 C0.0,11.2 0.0,11.4 0.0,11.5 C0.0,11.427 0.177,11.811 0.459,12.83 L0.458,12.83 L9.458,21.83 L9.462,21.80 C9.731,21.338 10.97,21.497 10.500,21.497 C11.329,21.497 12.0,20.826 12.0,19.998 C12.0,19.543 11.797,19.135 11.477,18.859 Z"/>
</svg>