<svg xmlns="http://www.w3.org/2000/svg"
    xmlns:xlink="http://www.w3.org/1999/xlink" width="18px" height="15px">
    <path fill-rule="evenodd" fill="rgb(255, 255, 255)" d="M17.725,3.662 L17.727,3.663 L15.252,9.163 L15.252,9.163 C15.130,9.434 14.866,9.627 14.554,9.647 L14.554,9.647 L7.427,10.122 L7.838,11.299 L15.600,11.299 C16.511,11.299 17.249,12.38 17.249,12.949 C17.249,13.861 16.511,14.599 15.600,14.599 C14.688,14.599 13.949,13.861 13.949,12.949 L6.249,12.949 C6.249,13.861 5.511,14.599 4.599,14.599 C3.688,14.599 2.949,13.861 2.949,12.949 C2.949,12.38 3.688,11.299 4.599,11.299 L6.90,11.299 L2.914,2.224 L1.24,2.224 C0.569,2.224 0.199,1.855 0.199,1.399 C0.199,0.944 0.569,0.574 1.24,0.574 L3.499,0.574 C3.859,0.574 4.162,0.806 4.275,1.128 L4.278,1.127 L4.759,2.499 L16.974,2.499 C17.430,2.499 17.799,2.868 17.799,3.324 C17.799,3.445 17.772,3.559 17.725,3.662 ZM5.336,4.149 L6.861,8.506 L13.950,8.34 L15.699,4.149 L5.336,4.149 Z"/>
</svg>