<svg xmlns="http://www.w3.org/2000/svg"
    xmlns:xlink="http://www.w3.org/1999/xlink" width="32px" height="32px">
    <path fill-rule="evenodd" fill="rgb(149, 225, 211)" d="M31.64,25.889 L16.593,31.877 C16.411,31.955 16.210,32.0 15.999,32.0 C15.789,32.0 15.588,31.955 15.406,31.877 L0.935,25.889 C0.386,25.666 0.0,25.128 0.0,24.499 L0.0,1.499 C0.0,0.671 0.671,0.0 1.499,0.0 C1.703,0.0 1.896,0.40 2.73,0.113 L2.73,0.113 L2.75,0.115 C2.80,0.116 2.84,0.118 2.89,0.120 L15.999,5.876 L29.910,0.120 C29.914,0.118 29.919,0.116 29.923,0.115 L29.926,0.113 L29.926,0.113 C30.103,0.40 30.296,0.0 30.499,0.0 C31.328,0.0 31.999,0.671 31.999,1.499 L31.999,24.499 C31.999,25.128 31.613,25.666 31.64,25.889 ZM14.499,8.502 L2.999,3.743 L2.999,23.496 L14.499,28.255 L14.499,8.502 ZM29.0,3.743 L17.499,8.502 L17.499,28.255 L29.0,23.496 L29.0,3.743 ZM19.879,10.634 L25.379,8.134 L25.379,8.134 C25.568,8.47 25.778,7.999 25.999,7.999 C26.828,7.999 27.500,8.671 27.500,9.499 C27.500,10.106 27.139,10.629 26.620,10.865 L26.620,10.865 L21.120,13.365 L21.120,13.365 C20.931,13.451 20.721,13.499 20.500,13.499 C19.671,13.499 18.999,12.828 18.999,11.999 C18.999,11.392 19.360,10.870 19.879,10.634 ZM19.879,16.134 L19.879,16.134 L25.379,13.634 L25.379,13.634 C25.568,13.548 25.778,13.499 25.999,13.499 C26.828,13.499 27.500,14.171 27.500,14.999 C27.500,15.606 27.139,16.129 26.620,16.365 L21.120,18.865 L21.120,18.864 C20.931,18.951 20.721,18.999 20.500,18.999 C19.671,18.999 18.999,18.327 18.999,17.500 C18.999,16.892 19.360,16.370 19.879,16.134 ZM19.879,21.634 L19.879,21.634 L25.379,19.134 L25.379,19.134 C25.568,19.47 25.778,18.999 25.999,18.999 C26.828,18.999 27.500,19.671 27.500,20.499 C27.500,21.106 27.139,21.629 26.620,21.865 L26.620,21.865 L21.120,24.365 L21.120,24.365 C20.931,24.451 20.721,24.499 20.500,24.499 C19.671,24.499 18.999,23.828 18.999,22.999 C18.999,22.392 19.360,21.870 19.879,21.634 ZM6.0,7.999 C6.221,7.999 6.431,8.47 6.620,8.134 L6.620,8.134 L12.120,10.634 L12.120,10.634 C12.639,10.870 13.0,11.392 13.0,11.999 C13.0,12.828 12.328,13.499 11.499,13.499 C11.278,13.499 11.68,13.451 10.879,13.365 L10.879,13.365 L5.379,10.865 L5.379,10.865 C4.860,10.629 4.499,10.106 4.499,9.499 C4.499,8.671 5.171,7.999 6.0,7.999 ZM6.0,13.499 C6.221,13.499 6.431,13.548 6.620,13.634 L6.620,13.634 L12.120,16.134 L12.120,16.134 C12.639,16.370 13.0,16.892 13.0,17.500 C13.0,18.327 12.328,18.999 11.499,18.999 C11.278,18.999 11.68,18.951 10.879,18.864 L10.879,18.865 L5.379,16.365 L5.379,16.365 C4.860,16.129 4.499,15.606 4.499,14.999 C4.499,14.171 5.171,13.499 6.0,13.499 ZM6.0,18.999 C6.221,18.999 6.431,19.47 6.620,19.134 L6.620,19.134 L12.120,21.634 L12.120,21.634 C12.639,21.870 13.0,22.392 13.0,22.999 C13.0,23.828 12.328,24.499 11.499,24.499 C11.278,24.499 11.68,24.451 10.879,24.365 L10.879,24.365 L5.379,21.865 L5.379,21.865 C4.860,21.629 4.499,21.106 4.499,20.499 C4.499,19.671 5.171,18.999 6.0,18.999 Z"/>
</svg>