<svg xmlns="http://www.w3.org/2000/svg"
    xmlns:xlink="http://www.w3.org/1999/xlink" width="63px" height="61px">
    <path fill-rule="evenodd" fill="rgb(149, 225, 211)" d="M60.0,35.997 L59.100,35.997 L59.100,35.997 L57.999,35.997 L57.999,40.998 L57.999,40.998 C57.999,41.204 57.979,41.407 57.939,41.602 C57.911,41.739 57.862,41.866 57.817,41.995 C57.797,42.52 57.787,42.112 57.764,42.165 C57.715,42.280 57.649,42.385 57.587,42.491 C57.552,42.552 57.526,42.617 57.487,42.676 C57.389,42.819 57.275,42.953 57.154,43.78 C57.142,43.92 57.133,43.107 57.121,43.118 C56.586,43.654 55.850,43.984 55.37,43.994 C55.24,43.994 55.12,43.997 55.0,43.997 L55.0,43.997 L55.0,43.997 C54.171,43.997 53.421,43.663 52.878,43.118 L45.757,35.997 L45.400,35.997 L45.400,35.997 L17.999,35.997 C16.343,35.997 15.0,34.655 15.0,32.998 L15.0,2.998 C15.0,1.341 16.343,0.2 17.999,0.2 L60.0,0.2 C61.656,0.2 63.0,1.341 63.0,2.998 L63.0,32.998 C63.0,34.655 61.656,35.997 60.0,35.997 ZM44.514,38.998 L50.841,45.324 L50.849,45.316 C51.927,46.353 53.386,46.998 55.0,46.998 L55.0,48.998 C55.0,50.655 53.656,51.997 51.999,51.997 L51.999,51.997 L30.900,51.997 L30.900,51.997 L24.0,51.997 L24.0,51.997 L20.999,51.997 L20.999,51.997 L20.242,51.997 L12.121,60.119 C11.578,60.662 10.828,60.998 10.0,60.998 L10.0,60.998 L10.0,60.998 C9.987,60.998 9.975,60.994 9.962,60.994 C9.149,60.984 8.413,60.654 7.878,60.119 C7.866,60.106 7.857,60.91 7.845,60.78 C7.724,59.954 7.610,59.820 7.512,59.674 C7.473,59.618 7.447,59.552 7.412,59.491 C7.350,59.384 7.284,59.280 7.235,59.166 C7.212,59.112 7.202,59.51 7.182,58.995 C7.137,58.866 7.88,58.739 7.60,58.602 C7.21,58.408 7.0,58.205 7.0,57.997 L7.0,57.997 L7.0,51.997 L6.499,51.997 L6.499,51.997 L2.995,51.997 C1.340,51.995 0.0,50.654 0.0,48.998 L0.0,14.999 C0.0,14.998 0.0,14.998 0.0,14.998 C0.0,13.340 1.343,11.998 3.0,11.998 L12.0,11.998 L12.0,32.998 C12.0,36.311 14.686,38.998 17.999,38.998 L44.514,38.998 Z"/>
</svg>