<svg xmlns="http://www.w3.org/2000/svg"
    xmlns:xlink="http://www.w3.org/1999/xlink" width="32px" height="28px">
    <path fill-rule="evenodd" fill="rgb(149, 225, 211)" d="M30.0,22.999 L22.500,22.999 L20.499,22.999 L20.499,25.499 L22.500,27.499 L22.500,27.999 L9.500,27.999 L9.500,27.499 L11.499,25.499 L11.499,22.999 L9.500,22.999 L2.0,22.999 C1.171,22.999 0.500,22.327 0.500,21.499 L0.500,1.499 C0.500,0.671 1.171,0.0 2.0,0.0 L30.0,0.0 C30.828,0.0 31.500,0.671 31.500,1.499 L31.500,21.499 C31.500,22.327 30.828,22.999 30.0,22.999 ZM29.500,1.999 L2.500,1.999 L2.500,18.999 L29.500,18.999 L29.500,1.999 ZM12.999,8.999 C13.414,8.999 13.789,9.167 14.60,9.439 L14.60,9.439 L14.999,10.378 L17.939,7.439 L17.939,7.439 C18.210,7.167 18.585,7.0 18.999,7.0 C19.828,7.0 20.499,7.671 20.499,8.499 C20.499,8.913 20.332,9.288 20.60,9.560 L20.60,9.560 L16.60,13.560 L16.60,13.560 C15.789,13.831 15.414,14.0 14.999,14.0 C14.585,14.0 14.210,13.831 13.939,13.560 L13.939,13.560 L11.939,11.560 L11.939,11.560 C11.667,11.289 11.499,10.913 11.499,10.500 C11.499,9.671 12.171,8.999 12.999,8.999 Z"/>
</svg>