<svg xmlns="http://www.w3.org/2000/svg"
    xmlns:xlink="http://www.w3.org/1999/xlink" width="32px" height="31px">
    <path fill-rule="evenodd" fill="rgb(149, 225, 211)" d="M31.999,16.499 C31.999,17.328 31.328,17.999 30.499,17.999 C30.104,17.999 29.748,17.843 29.480,17.594 L29.476,17.597 L16.38,4.159 L16.38,4.158 L15.999,4.122 L15.999,4.121 L2.553,17.568 L2.553,17.567 C2.282,17.834 1.910,17.999 1.500,17.999 C0.671,17.999 0.0,17.328 0.0,16.499 C0.0,16.74 0.177,15.691 0.460,15.418 L14.918,0.960 C15.191,0.676 15.575,0.499 15.999,0.499 L15.999,0.499 L15.999,0.499 C16.0,0.499 16.0,0.499 16.0,0.499 C16.27,0.499 16.53,0.500 16.79,0.501 C16.83,0.501 16.87,0.502 16.92,0.502 C16.114,0.504 16.137,0.506 16.159,0.508 C16.160,0.508 16.162,0.508 16.163,0.509 C16.531,0.549 16.858,0.721 17.96,0.977 L17.97,0.976 L22.999,6.878 L22.999,5.499 C22.999,4.671 23.671,3.999 24.499,3.999 C25.328,3.999 25.999,4.671 25.999,5.499 L25.999,9.878 L31.597,15.476 L31.594,15.480 C31.844,15.747 31.999,16.104 31.999,16.499 ZM28.999,18.999 L28.999,23.499 L28.999,25.499 L28.999,29.499 C28.999,30.328 28.328,30.999 27.500,30.999 L24.499,30.999 L24.499,18.999 L18.500,18.999 L18.500,30.999 L4.500,30.999 C3.671,30.999 3.0,30.328 3.0,29.499 L3.0,25.499 L3.0,23.499 L3.0,18.999 L15.999,5.999 L28.999,18.999 ZM13.499,18.999 L7.499,18.999 L7.499,25.0 L13.499,25.0 L13.499,18.999 Z"/>
</svg>