<svg xmlns="http://www.w3.org/2000/svg"
    xmlns:xlink="http://www.w3.org/1999/xlink" width="32px" height="32px">
    <path fill-rule="evenodd" fill="rgb(149, 225, 211)" d="M30.500,32.0 L1.500,32.0 C0.671,32.0 0.0,31.328 0.0,30.499 L0.0,1.499 C0.0,0.671 0.671,0.0 1.500,0.0 L30.500,0.0 C31.328,0.0 32.0,0.671 32.0,1.499 L32.0,30.499 C32.0,31.328 31.328,32.0 30.500,32.0 ZM29.0,2.999 L2.999,2.999 L2.999,28.999 L29.0,28.999 L29.0,2.999 ZM6.500,4.499 L11.999,4.499 L11.999,4.499 C12.828,4.499 13.499,5.171 13.499,5.999 C13.499,6.828 12.828,7.499 11.999,7.499 L11.999,7.499 L7.500,7.499 L7.500,11.999 L7.500,11.999 C7.500,12.828 6.828,13.499 5.999,13.499 C5.171,13.499 4.499,12.828 4.499,11.999 L4.499,11.999 L4.499,6.499 L4.499,6.499 L4.499,4.499 L6.500,4.499 L6.500,4.499 ZM4.499,19.999 L4.499,19.999 C4.499,19.171 5.171,18.499 5.999,18.499 C6.828,18.499 7.500,19.171 7.500,19.999 L7.500,19.999 L7.500,24.499 L11.999,24.499 L11.999,24.499 C12.828,24.499 13.499,25.171 13.499,25.999 C13.499,26.828 12.828,27.499 11.999,27.499 L11.999,27.499 L6.500,27.499 L6.500,27.499 L4.499,27.499 L4.499,25.499 L4.499,25.499 L4.499,19.999 ZM19.999,4.499 L20.0,4.499 L25.499,4.499 L25.499,4.499 L27.499,4.499 L27.499,6.499 L27.499,6.499 L27.499,11.999 L27.499,11.999 C27.499,12.828 26.828,13.499 25.999,13.499 C25.171,13.499 24.499,12.828 24.499,11.999 L24.499,11.999 L24.499,7.499 L19.999,7.499 L19.999,7.499 C19.171,7.499 18.499,6.828 18.499,5.999 C18.499,5.171 19.171,4.499 19.999,4.499 ZM19.999,24.499 L19.999,24.499 L24.499,24.499 L24.499,19.999 L24.499,19.999 C24.499,19.171 25.171,18.499 25.999,18.499 C26.828,18.499 27.499,19.171 27.499,19.999 L27.499,19.999 L27.499,25.499 L27.499,25.499 L27.499,27.499 L25.499,27.499 L25.499,27.499 L20.0,27.499 L19.999,27.499 C19.171,27.499 18.499,26.828 18.499,25.999 C18.499,25.171 19.171,24.499 19.999,24.499 Z"/>
</svg>