<svg xmlns="http://www.w3.org/2000/svg"
    xmlns:xlink="http://www.w3.org/1999/xlink" width="20px" height="12px">
    <path fill-rule="evenodd" fill="rgb(149, 225, 211)" d="M19.709,5.775 C19.709,5.784 19.708,5.792 19.708,5.800 C19.707,5.804 19.707,5.808 19.706,5.812 C19.706,5.818 19.705,5.824 19.704,5.830 C19.703,5.837 19.703,5.843 19.702,5.850 C19.701,5.852 19.701,5.852 19.701,5.853 C19.677,6.7 19.606,6.151 19.498,6.262 C19.294,6.510 19.71,6.742 18.847,6.969 C17.636,8.199 16.246,9.296 14.724,10.92 C13.751,10.600 12.713,11.10 11.635,11.208 C10.450,11.425 9.263,11.414 8.85,11.158 C6.45,10.714 4.197,9.612 2.581,8.295 C1.831,7.683 1.93,7.15 0.473,6.262 C0.202,5.933 0.202,5.543 0.473,5.214 C0.677,4.967 0.900,4.735 1.124,4.507 C2.335,3.277 3.725,2.181 5.247,1.385 C6.219,0.876 7.258,0.466 8.336,0.268 C9.521,0.52 10.708,0.63 11.886,0.319 C13.926,0.763 15.774,1.865 17.390,3.182 C18.140,3.793 18.877,4.462 19.498,5.214 C19.606,5.325 19.677,5.470 19.701,5.623 C19.701,5.625 19.701,5.625 19.701,5.626 C19.702,5.633 19.703,5.640 19.704,5.647 C19.705,5.653 19.706,5.658 19.706,5.664 C19.706,5.669 19.707,5.673 19.707,5.677 C19.708,5.685 19.709,5.693 19.709,5.701 C19.709,5.714 19.710,5.726 19.710,5.738 C19.710,5.751 19.710,5.763 19.709,5.775 ZM9.990,1.942 C7.977,1.942 6.345,3.574 6.345,5.586 C6.345,7.599 7.977,9.231 9.990,9.231 C12.3,9.231 13.635,7.599 13.635,5.586 C13.635,3.574 12.3,1.942 9.990,1.942 ZM9.990,7.408 C8.983,7.408 8.167,6.593 8.167,5.586 C8.167,4.580 8.983,3.764 9.990,3.764 C10.996,3.764 11.812,4.580 11.812,5.586 C11.812,6.593 10.996,7.408 9.990,7.408 Z"/>
</svg>