<svg xmlns="http://www.w3.org/2000/svg"
    xmlns:xlink="http://www.w3.org/1999/xlink" width="8px" height="17px">
    <path fill-rule="evenodd" fill="rgb(149, 225, 211)" d="M7.993,0.14 C7.993,0.937 7.993,2.590 7.993,2.590 C7.993,2.590 6.94,2.401 5.619,3.128 C5.359,3.526 5.513,4.690 5.490,5.526 C6.319,5.526 7.180,5.526 8.8,5.526 C7.795,6.505 7.643,7.167 7.486,8.13 C6.769,8.13 5.476,8.13 5.476,8.13 L5.476,16.16 C5.476,16.16 3.103,16.16 1.987,16.16 C1.988,13.549 1.987,10.670 1.987,8.45 C1.446,8.45 1.45,8.45 0.503,8.45 C0.503,7.121 0.503,6.450 0.503,5.526 C1.29,5.526 1.445,5.526 1.971,5.526 C2.46,3.685 2.75,1.861 2.989,0.933 C4.17,0.111 4.997,0.14 7.993,0.14 Z"/>
</svg>