<svg xmlns="http://www.w3.org/2000/svg"
    xmlns:xlink="http://www.w3.org/1999/xlink" width="16px" height="15px">
    <path fill-rule="evenodd" fill="rgb(149, 225, 211)" d="M13.499,3.716 L13.499,6.156 L12.499,6.156 L12.499,3.716 L9.999,3.716 L9.999,2.719 L12.499,2.719 L12.499,0.279 L13.499,0.279 L13.499,2.719 L15.999,2.719 L15.999,3.716 L13.499,3.716 ZM6.585,1.246 C7.472,1.736 7.992,2.534 7.992,3.576 C7.992,4.453 7.451,5.143 6.753,5.679 C6.73,6.201 5.943,6.420 5.943,6.864 C5.943,7.243 6.673,7.888 7.54,8.153 C8.169,8.928 8.498,9.646 8.498,10.846 C8.498,12.344 7.54,14.15 4.383,14.15 C2.39,14.15 0.0,12.895 0.0,11.398 C0.0,9.878 1.866,8.411 4.209,8.411 C4.464,8.411 4.698,8.400 4.940,8.400 C4.620,8.94 4.366,7.713 4.366,7.249 C4.366,6.975 4.455,6.699 4.580,6.464 C4.453,6.473 4.323,6.452 4.189,6.452 C2.264,6.452 0.975,5.61 0.975,3.395 C0.975,1.764 2.755,0.263 4.647,0.263 C5.702,0.263 8.867,0.263 8.867,0.263 L7.923,1.246 L6.585,1.246 ZM4.655,8.798 C3.36,8.782 1.584,9.769 1.584,10.954 C1.584,12.164 2.754,13.48 4.374,13.48 C6.651,13.48 7.445,12.226 7.445,11.16 C7.445,10.870 7.426,10.727 7.393,10.588 C7.215,9.904 6.584,9.565 5.705,8.965 C5.385,8.863 5.33,8.803 4.655,8.798 ZM6.475,3.595 C6.287,2.193 5.207,1.68 4.120,1.37 C3.33,1.5 2.304,2.77 2.492,3.480 C2.679,4.882 3.712,6.45 4.800,6.77 C5.886,6.108 6.662,4.998 6.475,3.595 Z"/>
</svg>