<svg xmlns="http://www.w3.org/2000/svg"
    xmlns:xlink="http://www.w3.org/1999/xlink" width="32px" height="32px">
    <path fill-rule="evenodd" fill="rgb(149, 225, 211)" d="M30.499,31.999 L1.499,31.999 C0.671,31.999 0.0,31.328 0.0,30.499 L0.0,1.499 C0.0,0.671 0.671,0.0 1.499,0.0 L30.499,0.0 C31.328,0.0 32.0,0.671 32.0,1.499 L32.0,30.499 C32.0,31.328 31.328,31.999 30.499,31.999 ZM28.999,2.999 L3.0,2.999 L3.0,28.999 L28.999,28.999 L28.999,2.999 ZM5.215,16.238 L5.214,16.237 L9.214,13.737 L9.215,13.738 C9.443,13.598 9.712,13.517 9.999,13.517 C10.311,13.517 10.600,13.611 10.840,13.774 L10.845,13.765 L17.476,18.185 L25.114,12.794 C25.363,12.612 25.668,12.505 26.0,12.505 C26.828,12.505 27.499,13.176 27.499,14.5 C27.499,14.505 27.254,14.948 26.878,15.220 L26.878,15.221 L18.378,21.221 L18.378,21.220 C18.131,21.399 17.828,21.505 17.500,21.505 C17.179,21.505 16.882,21.404 16.638,21.232 L9.982,16.795 L6.846,18.755 C6.605,18.920 6.314,19.17 5.999,19.17 C5.171,19.17 4.499,18.345 4.499,17.517 C4.499,16.976 4.786,16.502 5.215,16.238 Z"/>
</svg>