<svg xmlns="http://www.w3.org/2000/svg"
    xmlns:xlink="http://www.w3.org/1999/xlink" width="16px" height="16px">
    <path fill-rule="evenodd" fill="rgb(149, 225, 211)" d="M13.999,16.14 L1.999,16.14 C0.895,16.14 0.0,15.119 0.0,14.15 L0.0,2.15 C0.0,0.909 0.895,0.14 1.999,0.14 L13.999,0.14 C15.104,0.14 15.999,0.909 15.999,2.15 L15.999,14.15 C15.999,15.119 15.104,16.14 13.999,16.14 ZM7.999,4.914 C6.752,4.914 5.680,5.653 5.188,6.714 L5.185,6.714 C5.180,6.726 5.177,6.738 5.172,6.749 C5.142,6.814 5.116,6.882 5.91,6.950 C5.79,6.982 5.66,7.14 5.56,7.47 C5.33,7.117 5.14,7.188 4.996,7.259 C4.988,7.293 4.978,7.325 4.970,7.359 C4.954,7.435 4.943,7.512 4.932,7.589 C4.928,7.620 4.921,7.651 4.918,7.683 C4.906,7.792 4.900,7.902 4.900,8.14 C4.900,9.727 6.287,11.114 7.999,11.114 C9.712,11.114 11.99,9.727 11.99,8.14 C11.99,7.902 11.93,7.792 11.81,7.683 C11.78,7.651 11.71,7.620 11.67,7.589 C11.56,7.512 11.45,7.435 11.29,7.359 C11.21,7.325 11.11,7.293 11.3,7.259 C10.985,7.188 10.966,7.117 10.943,7.47 C10.932,7.14 10.920,6.982 10.908,6.950 C10.883,6.882 10.857,6.814 10.827,6.749 C10.822,6.738 10.819,6.726 10.814,6.714 L10.811,6.714 C10.319,5.653 9.247,4.914 7.999,4.914 ZM14.199,2.615 C14.199,2.172 13.841,1.815 13.399,1.815 L11.799,1.815 C11.358,1.815 10.999,2.172 10.999,2.615 L10.999,4.215 C10.999,4.656 11.358,5.14 11.799,5.14 L13.399,5.14 C13.841,5.14 14.199,4.656 14.199,4.215 L14.199,2.615 ZM14.199,6.714 L12.725,6.714 C12.838,7.129 12.900,7.564 12.900,8.14 C12.900,10.720 10.706,12.914 7.999,12.914 C5.293,12.914 3.99,10.720 3.99,8.14 C3.99,7.564 3.160,7.129 3.274,6.714 L1.799,6.714 L1.799,13.415 C1.799,13.856 2.158,14.214 2.599,14.214 L13.399,14.214 C13.841,14.214 14.199,13.856 14.199,13.415 L14.199,6.714 Z"/>
</svg>