<svg xmlns="http://www.w3.org/2000/svg"
    xmlns:xlink="http://www.w3.org/1999/xlink" width="17px" height="15px">
    <path fill-rule="evenodd" fill="rgb(149, 225, 211)" d="M9.416,12.358 C8.842,12.358 8.282,12.192 7.740,12.114 C5.548,14.885 2.92,14.340 2.92,14.340 C4.533,13.185 4.484,11.271 4.50,11.16 C2.134,9.890 0.981,8.175 0.981,6.255 C0.981,2.864 4.708,0.115 9.416,0.115 C14.123,0.115 16.993,2.864 16.993,6.255 C16.993,9.646 14.123,12.358 9.416,12.358 ZM5.242,4.875 C4.413,4.875 3.742,5.546 3.742,6.374 C3.742,7.203 4.413,7.874 5.242,7.874 C6.70,7.874 6.742,7.203 6.742,6.374 C6.742,5.546 6.70,4.875 5.242,4.875 ZM8.992,4.875 C8.163,4.875 7.492,5.546 7.492,6.374 C7.492,7.203 8.163,7.874 8.992,7.874 C9.820,7.874 10.492,7.203 10.492,6.374 C10.492,5.546 9.820,4.875 8.992,4.875 ZM12.742,4.875 C11.913,4.875 11.242,5.546 11.242,6.374 C11.242,7.203 11.913,7.874 12.742,7.874 C13.570,7.874 14.242,7.203 14.242,6.374 C14.242,5.546 13.570,4.875 12.742,4.875 Z"/>
</svg>