<svg xmlns="http://www.w3.org/2000/svg"
    xmlns:xlink="http://www.w3.org/1999/xlink" width="20px" height="26px">
    <path fill-rule="evenodd" fill="rgb(243, 129, 129)" d="M10.0,25.800 C10.0,25.800 0.400,15.101 0.400,9.799 C0.400,4.498 4.698,0.199 10.0,0.199 C15.301,0.199 19.599,4.498 19.599,9.799 C19.599,15.101 10.0,25.800 10.0,25.800 ZM10.0,3.400 C6.465,3.400 3.600,6.265 3.600,9.799 C3.600,13.334 6.465,16.200 10.0,16.200 C13.534,16.200 16.399,13.334 16.399,9.799 C16.399,6.265 13.534,3.400 10.0,3.400 ZM10.0,12.999 C8.232,12.999 6.800,11.567 6.800,9.799 C6.800,8.32 8.232,6.599 10.0,6.599 C11.767,6.599 13.199,8.32 13.199,9.799 C13.199,11.567 11.767,12.999 10.0,12.999 Z"/>
</svg>