<svg xmlns="http://www.w3.org/2000/svg"
    xmlns:xlink="http://www.w3.org/1999/xlink" width="18px" height="18px">
    <path fill-rule="evenodd" fill="rgb(255, 255, 255)" d="M17.316,14.982 C17.615,15.281 17.799,15.693 17.799,16.149 C17.799,17.61 17.61,17.799 16.150,17.799 C15.694,17.799 15.281,17.614 14.983,17.316 L14.983,17.316 L10.147,12.480 C9.165,13.61 8.23,13.399 6.799,13.399 C3.154,13.399 0.199,10.445 0.199,6.799 C0.199,3.154 3.154,0.199 6.799,0.199 C10.445,0.199 13.399,3.154 13.399,6.799 C13.399,8.23 13.61,9.164 12.480,10.147 L17.316,14.982 L17.316,14.982 ZM6.799,1.849 C4.66,1.849 1.849,4.65 1.849,6.799 C1.849,9.533 4.66,11.749 6.799,11.749 C9.533,11.749 11.749,9.533 11.749,6.799 C11.749,4.65 9.533,1.849 6.799,1.849 Z"/>
</svg>