<svg xmlns="http://www.w3.org/2000/svg"
    xmlns:xlink="http://www.w3.org/1999/xlink" width="10px" height="17px">
    <path fill-rule="evenodd" fill="rgb(149, 225, 211)" d="M10.8,15.145 C9.328,15.465 8.712,15.693 8.160,15.823 C7.608,15.952 7.11,16.17 6.370,16.17 C5.642,16.17 5.212,15.925 4.653,15.741 C4.94,15.556 3.616,15.291 3.222,14.951 C2.825,14.608 2.553,14.243 2.399,13.859 C2.246,13.474 2.170,12.916 2.170,12.182 L2.170,6.568 L0.7,6.568 L0.7,4.302 C0.632,4.98 1.358,3.804 1.802,3.423 C2.250,3.41 2.608,2.583 2.878,2.47 C3.148,1.514 3.334,0.834 3.435,0.8 L5.701,0.8 L5.701,3.711 L9.383,3.711 L9.383,6.568 L5.701,6.568 L5.701,10.673 C5.701,11.603 5.689,12.138 5.787,12.400 C5.884,12.662 6.128,12.934 6.394,13.91 C6.746,13.304 7.148,13.410 7.602,13.410 C8.409,13.410 9.210,13.146 10.8,12.620 L10.8,15.145 Z"/>
</svg>