<svg xmlns="http://www.w3.org/2000/svg"
    xmlns:xlink="http://www.w3.org/1999/xlink" width="16px" height="14px">
    <path fill-rule="evenodd" fill="rgb(149, 225, 211)" d="M10.882,0.515 C12.154,0.493 12.830,0.956 13.477,1.545 C14.26,1.498 14.739,1.192 15.159,0.978 C15.295,0.904 15.431,0.829 15.567,0.755 C15.327,1.403 15.2,1.910 14.502,2.295 C14.391,2.381 14.281,2.497 14.142,2.551 C14.142,2.554 14.142,2.556 14.142,2.559 C14.854,2.552 15.441,2.230 15.999,2.56 C15.999,2.59 15.999,2.61 15.999,2.64 C15.706,2.530 15.310,3.3 14.886,3.341 C14.716,3.477 14.545,3.613 14.374,3.749 C14.383,4.503 14.363,5.223 14.222,5.856 C13.402,9.542 11.230,12.43 7.791,13.114 C6.556,13.499 4.561,13.657 3.147,13.306 C2.445,13.132 1.811,12.935 1.217,12.675 C0.886,12.530 0.580,12.375 0.288,12.196 C0.192,12.137 0.96,12.79 0.0,12.20 C0.319,12.29 0.692,12.118 1.49,12.60 C1.371,12.8 1.688,12.22 1.985,11.956 C2.728,11.793 3.387,11.578 3.955,11.246 C4.231,11.85 4.649,10.896 4.844,10.663 C4.476,10.669 4.141,10.584 3.867,10.487 C2.805,10.113 2.187,9.423 1.785,8.388 C2.107,8.423 3.34,8.507 3.251,8.324 C2.846,8.301 2.456,8.67 2.178,7.892 C1.323,7.358 0.627,6.461 0.632,5.82 C0.744,5.135 0.856,5.189 0.968,5.242 C1.183,5.332 1.401,5.381 1.657,5.434 C1.765,5.456 1.981,5.519 2.106,5.473 C2.100,5.473 2.95,5.473 2.90,5.473 C1.924,5.281 1.655,5.153 1.489,4.947 C0.941,4.265 0.427,3.217 0.752,1.968 C0.835,1.652 0.965,1.372 1.105,1.114 C1.110,1.116 1.115,1.119 1.121,1.122 C1.184,1.255 1.327,1.354 1.417,1.465 C1.697,1.812 2.42,2.124 2.394,2.399 C3.593,3.337 4.672,3.913 6.406,4.340 C6.846,4.448 7.354,4.530 7.879,4.531 C7.732,4.101 7.779,3.406 7.895,2.990 C8.188,1.944 8.822,1.190 9.753,0.787 C9.976,0.690 10.223,0.620 10.482,0.563 C10.615,0.547 10.749,0.531 10.882,0.515 Z"/>
</svg>